# xmcd
#
# Track frame offsets:
#	150
#	13074
#	28942
#	47414
#	63131
#	78417
#	91286
#	106209
#	120927
#	131835
#
# Disc length: 1964 seconds
#
# Revision: 0
# Processed by: cddbd v1.4PL0 Copyright (c) Steve Scherf et al.
# Submitted via: dBpowerAMP V4.0
#
DISCID=7507aa0a
DTITLE=Franklin Haynes - Before the Ink Is Dry
DYEAR=1999
DGENRE=Country
TTITLE0=Before It Was All Over
TTITLE1=Chance at Love
TTITLE2=Before the Ink Is Dry
TTITLE3=Otis Wheat
TTITLE4=Somebody Up There Really Likes Me
TTITLE5=Teasin' Time in Texas
TTITLE6=I Forgot to Forget
TTITLE7=Red Light
TTITLE8=Saved by a Southern Belle
TTITLE9=It Always Comes Back to You
EXTD=
EXTT0=
EXTT1=
EXTT2=
EXTT3=
EXTT4=
EXTT5=
EXTT6=
EXTT7=
EXTT8=
EXTT9=
PLAYORDER=
